<svg width="14" height="14" viewBox="0 0 14 14" fill="none" xmlns="http://www.w3.org/2000/svg">
<path d="M1.23526 13.5925L13.5882 1.36697C13.8155 1.14201 13.8155 0.776878 13.5882 0.551953C13.3609 0.326994 12.9919 0.327028 12.7647 0.551953L0.411754 12.7775C0.184451 13.0024 0.184485 13.3676 0.411754 13.5925C0.639023 13.8174 1.00799 13.8174 1.23526 13.5925Z" fill="#444444"/>
<path d="M13.5884 12.633L1.23548 0.407508C1.00818 0.182549 0.639248 0.18258 0.411982 0.407503C0.184715 0.632425 0.184718 0.997588 0.411986 1.22251L12.7649 13.4481C12.9922 13.673 13.3611 13.673 13.5884 13.4481C13.8157 13.2231 13.8157 12.858 13.5884 12.633Z" fill="#444444"/>
</svg>
